<?xml version="1.0" encoding="utf-8"?>
<!-- Generator: Adobe Illustrator 16.2.1, SVG Export Plug-In . SVG Version: 6.00 Build 0)  -->
<!DOCTYPE svg PUBLIC "-//W3C//DTD SVG 1.1//EN" "http://www.w3.org/Graphics/SVG/1.1/DTD/svg11.dtd">
<svg version="1.1"
	 id="svg2" sodipodi:docname="Like.svg.2011_10_09_19_35_59.0.svg" inkscape:version="0.48.0 r9654" xmlns:rdf="http://www.w3.org/1999/02/22-rdf-syntax-ns#" xmlns:inkscape="http://www.inkscape.org/namespaces/inkscape" xmlns:cc="http://creativecommons.org/ns#" xmlns:dc="http://purl.org/dc/elements/1.1/" xmlns:osb="http://www.openswatchbook.org/uri/2009/osb" xmlns:svg="http://www.w3.org/2000/svg" xmlns:sodipodi="http://sodipodi.sourceforge.net/DTD/sodipodi-0.dtd"
	 xmlns="http://www.w3.org/2000/svg" xmlns:xlink="http://www.w3.org/1999/xlink" x="0px" y="0px" width="300px" height="257px"
	 viewBox="0 0 300 257" enable-background="new 0 0 300 257" xml:space="preserve">
<sodipodi:namedview  inkscape:pageshadow="2" inkscape:current-layer="svg2" inkscape:window-width="1366" inkscape:window-maximized="1" inkscape:window-y="-8" inkscape:pageopacity="0" inkscape:window-height="706" inkscape:window-x="-8" gridtolerance="10" showgrid="false" guidetolerance="10" pagecolor="#ffffff" inkscape:cx="219.08488" id="namedview4" borderopacity="1" bordercolor="#666666" objecttolerance="10" inkscape:zoom="2" inkscape:cy="136.09328">
	</sodipodi:namedview>
<path id="path3009" sodipodi:nodetypes="cccccssssscsccccscssc" inkscape:connector-curvature="0" fill="#9DACCB" stroke="#9DACCB" d="
	M148.328,12.258l0.512,40.469c-9.634,20.744-28.689,52.56-42.421,64.384l-1.749-2.163l-94.623-0.186
	c-4.868-0.208-10.071,5.394-9.776,9.233l9.312,121.25c0.306,3.977,4.532,8.951,8.952,8.951h84.269c3.298,0,7.818-3.277,7.957-7.324
	l0.361-10.578c2.736,3.885,10.142,9.674,16.546,9.674h113.564c14.218,0,36.136-15.146,28.933-40.688
	c8.145-6.517,12.965-17.586,8.139-31.646c8.539-6.979,14.75-20.098,7.595-31.826c22.757-19.069,7.989-45.751-9.585-45.751h-76.492
	c2.861-12.513,7.352-25.296,7.053-42.134c-0.26-14.542-9.919-35.735-16.818-47.017C187.18,2.2,160.619-6.869,148.328,12.258
	L148.328,12.258z"/>
<path id="path3764" sodipodi:nodetypes="ccccc" inkscape:connector-curvature="0" fill="#C5CFE2" d="M11.173,126.46h79.702
	l0.187,117.132h-70.95L11.173,126.46z"/>
<path id="path2994" inkscape:connector-curvature="0" fill="#B4C0DB" d="M19.739,142.289h63.128v94.227H27.747L19.739,142.289z"/>
<path id="path2987" sodipodi:nodetypes="cssccccccccccccccccc" inkscape:connector-curvature="0" fill="#EDF5F7" d="
	M186.759,107.055c3.649-14.671,6.312-30.988,8.077-46.627c0.434-3.845,0.414-7.166-0.168-10.353
	c-2.304-12.606-7.58-23.864-12.533-35.201c-4.907-3.861-14.512-5.398-21.714,0.458v39.79
	c-12.083,23.669-25.711,46.455-42.539,67.413l-15.862,11.075v92.111l10.986,0.043c0,0,14.565,8.907,15.331,8.525
	c1.274,0.637,113.556,0.316,113.556,0.316c6.088,0.127,28.047-15.915,14.061-28.436c-1.865-1.143-1.619-4.581,0.127-5.725
	c8.742-1.568,19.338-18.014,8.27-26.676c-1.885-2.102-0.533-5.396,1.697-5.641c6.538-3.158,17.736-13.727,7.57-26.488
	c-2.052-1.044-2.141-3.737-0.233-5.363c9.833-1.371,22.288-23.773,1.671-29.156L186.759,107.055z"/>
<path id="path3002" sodipodi:nodetypes="ccccc" inkscape:connector-curvature="0" fill="#DCE4E7" d="M110.121,225.752v-97.838
	l-8.127,5.515l0.037,92.315L110.121,225.752z"/>
<path id="path3000" sodipodi:nodetypes="ccsscccc" inkscape:connector-curvature="0" fill="#DCE4E7" d="M171.045,11.4l9.432,40.653
	l-24.982,44.354c-2.588,4.596,0.541,9.256,4.271,9.432l27.084,1.274c4.136-18.694,9.126-41.492,8.108-55.57
	c-1.851-9.817-5.832-22.234-12.827-36.818C178.223,12.075,174.978,11.4,171.045,11.4z"/>
<path id="path2985" sodipodi:nodetypes="cccccccccsssscccc" inkscape:connector-curvature="0" fill="#DCE4E7" d="M240.383,106.994
	c8.876,8.438,3.547,24.337-4.258,29.961c-1.48,0.854-1.799,2.955-0.721,4.326c8.602,9.834-2.836,26.412-6.489,28.118
	c-1.185,1.064-1.332,2.302-1.081,3.604c9.797,13.73-1.523,25.16-5.408,27.759c-1.285,1.151-1.683,3.147-0.721,5.047
	c8.547,13.452-1.35,22.979-6.994,28.899l27.887,0.06c5.362,0.269,27.866-16.083,12.952-28.926c-1.675-1.442-0.595-5.169,0.551-5.375
	c7.384-1.325,20.415-16.927,8.218-26.823c-0.852-0.691-1.577-4.12,1.676-5.559c10.078-4.453,16.301-15.166,7.684-26.545
	c-2.291-1.291-2.005-4.09-0.205-5.199c16.835-5.016,17.223-27.325,1.592-29.281L240.383,106.994z"/>
<g id="g3779">
	
		<path id="path3780" sodipodi:start="6.2585156" sodipodi:rx="13.828837" sodipodi:ry="13.828837" sodipodi:type="arc" sodipodi:cy="237.81807" sodipodi:open="true" sodipodi:cx="66.21273" sodipodi:end="12.541589" fill="#FFFFFF" d="
		M78.178,224.627c0.087,4.566-3.545,8.339-8.112,8.426s-8.339-3.545-8.426-8.111c-0.087-4.567,3.545-8.34,8.112-8.427
		c4.566-0.087,8.339,3.544,8.426,8.11"/>
	
		<path id="path3782" sodipodi:start="6.2585156" sodipodi:rx="1.0498047" sodipodi:ry="1.0498047" sodipodi:type="arc" sodipodi:cy="223.04004" sodipodi:open="true" sodipodi:cx="68.334961" sodipodi:end="12.541589" d="
		M69.142,223.062c0,0.58-0.47,1.051-1.05,1.051c-0.58,0-1.05-0.471-1.05-1.051s0.47-1.049,1.05-1.049
		C68.672,222.014,69.142,222.482,69.142,223.062"/>
	
		<path id="path3790" sodipodi:start="6.2585156" sodipodi:rx="1.0498047" sodipodi:ry="1.0498047" sodipodi:type="arc" sodipodi:cy="223.04004" sodipodi:open="true" sodipodi:cx="68.334961" sodipodi:end="12.541589" d="
		M72.731,223.062c0,0.58-0.47,1.051-1.05,1.051c-0.58,0-1.05-0.471-1.05-1.051s0.47-1.049,1.05-1.049
		C72.261,222.014,72.731,222.482,72.731,223.062"/>
	
		<path id="path3792" sodipodi:start="6.2585156" sodipodi:rx="1.0498047" sodipodi:ry="1.0498047" sodipodi:type="arc" sodipodi:cy="223.04004" sodipodi:open="true" sodipodi:cx="68.334961" sodipodi:end="12.541589" d="
		M72.731,226.701c0,0.579-0.47,1.049-1.05,1.049c-0.58,0-1.05-0.47-1.05-1.049c0-0.58,0.47-1.051,1.05-1.051
		C72.261,225.65,72.731,226.121,72.731,226.701"/>
	
		<path id="path3794" sodipodi:start="6.2585156" sodipodi:rx="1.0498047" sodipodi:ry="1.0498047" sodipodi:type="arc" sodipodi:cy="223.04004" sodipodi:open="true" sodipodi:cx="68.334961" sodipodi:end="12.541589" d="
		M69.142,226.701c0,0.579-0.47,1.049-1.05,1.049c-0.58,0-1.05-0.47-1.05-1.049c0-0.58,0.47-1.051,1.05-1.051
		C68.672,225.65,69.142,226.121,69.142,226.701"/>
</g>
</svg>
